<?xml version="1.0" encoding="UTF-8" standalone="no"?>
<svg
   width="81.04348"
   height="108.35217"
   viewBox="0 0 932.00002 1246.05"
   fill="none"
   version="1.1"
   id="svg9"
   xmlns="http://www.w3.org/2000/svg"
   xmlns:svg="http://www.w3.org/2000/svg">
  <path
     fill-rule="evenodd"
     clip-rule="evenodd"
     d="M 725.911,1080.89 C 840.93,999.38 916,865.206 916,713.5 916,464.972 744,141.5 466,0 190.5,149 16,464.972 16,713.5 c 0,151.706 75.07,285.88 190.089,367.39 -4.106,0.55 -8.14,1.25 -12.089,2.11 -87.389,19.07 -194,163.05 -194,163.05 h 264 c 46.972,0 91.631,-17.64 126.956,-37.43 17.159,22.7 44.388,37.38 75.044,37.38 30.656,0 57.885,-14.68 75.044,-37.38 35.325,19.79 79.984,37.43 126.956,37.43 h 264 c 0,0 -106.61,-143.98 -194,-163.05 -3.95,-0.86 -7.98,-1.56 -12.089,-2.11 z"
     fill="url(#paint0_linear)"
     id="path1"
     style="fill:url(#paint0_linear)" />
  <circle
     cx="465.5"
     cy="739.5"
     r="311.5"
     fill="#ffffff"
     id="circle1" />
  <path
     d="m 173,637.417 c 219,15.449 348.382,-38.029 438,-170.536 0,0 -172.707,-58.232 -277.756,0 C 228.55,524.916 173,637.417 173,637.417 Z"
     fill="#b4b4b4"
     id="path2" />
  <path
     d="M 769.99,635.282 C 644.862,621.745 533.264,581.135 480,428 c 0,0 110.633,25.272 222.355,127.101 116.035,105.756 67.635,80.181 67.635,80.181 z"
     fill="#b4b4b4"
     id="path3" />
  <circle
     cx="465.5"
     cy="739.5"
     r="311.5"
     stroke="#0a0000"
     stroke-width="40"
     id="circle3" />
  <path
     d="M 527,606 H 404 l 30,30 v 90 c 4.5,-29.5 60.5,-30.5 63.5,0 l 7.5,-90 z"
     fill="#000000"
     id="path4" />
  <path
     d="m 81.117,646 c 0,-22.091 17.909,-40 40,-40 h 284.901 c 24.182,0 42.834,21.292 39.652,45.264 l -24.76,186.5 C 418.27,857.646 401.314,872.5 381.258,872.5 H 121.117 c -22.091,0 -40,-17.909 -40,-40 z"
     fill="#000000"
     id="path5" />
  <path
     d="M 486.012,651.267 C 482.828,627.294 501.481,606 525.664,606 H 810 c 22.09,0 40,17.909 40,40 v 186.096 c 0,22.091 -17.91,40 -40,40 H 550.381 c -20.056,0 -37.011,-14.852 -39.652,-34.734 z"
     fill="#000000"
     id="path6" />
  <path
     d="m 754,839 v -30.53 h -10.29 c -6.68,0 -11.13,-4.718 -13.36,-11.657 L 688.064,669.697 c -2.782,-8.048 -6.12,-13.877 -10.572,-18.318 C 669.146,642.775 658.296,640 646.054,640 H 632.7 v 31.918 h 8.903 c 7.512,0 13.354,2.775 15.858,11.657 l 5.842,20.538 L 611,839 h 38.115 l 31.438,-88.815 16.692,53.567 C 703.644,824.568 714.494,839 738.98,839 Z"
     fill="#ffffff"
     id="path7" />
  <path
     d="m 320,839 v -30.53 h -10.294 c -6.677,0 -11.128,-4.718 -13.354,-11.657 L 254.064,669.697 c -2.782,-8.048 -6.12,-13.877 -10.572,-18.318 C 235.146,642.775 224.296,640 212.054,640 H 198.7 v 31.918 h 8.903 c 7.512,0 13.354,2.775 15.858,11.657 l 5.842,20.538 L 177,839 h 38.115 l 31.438,-88.815 16.692,53.567 C 269.644,824.568 280.494,839 304.977,839 Z"
     fill="#ffffff"
     id="path8" />
  <defs
     id="defs9">
    <linearGradient
       id="paint0_linear"
       x1="752"
       y1="113"
       x2="752"
       y2="1359.52"
       gradientUnits="userSpaceOnUse"
       gradientTransform="translate(-270,-113)">
      <stop
         stop-color="#E41F26"
         id="stop8" />
      <stop
         offset="1"
         stop-color="#B70000"
         id="stop9" />
    </linearGradient>
  </defs>
</svg>
